<svg id="bile2" enable-background="new 0 0 300 300" height="700" viewBox="0 0 300 300" width="700" xmlns="http://www.w3.org/2000/svg"><path d="m241.946 110v-21.181l-3.272-.605c-49.201-9.101-79.576 11.97-88.675 19.598-9.103-7.626-39.497-28.694-88.726-19.598l-3.273.605v21.181h-20v144h224v-144zm-8-14.481v123.886c-12.645-.621-49.676-.596-79.946 17.868v-122.33c2.615-2.3 9.627-7.916 20.607-12.717 12.487-5.46 32.748-10.919 59.339-6.707zm-167.946 0c46.169-7.31 74.15 14.329 80 19.432v122.324c-25.627-15.622-56.097-18.045-72.532-18.045-2.992 0-5.52.081-7.468.176zm-20 22.481h12v105.691l.002 4.422 4.4-.443c.491-.048 48.018-4.513 82.396 18.329h-98.798zm208 128h-98.8c34.356-22.841 81.856-18.379 82.342-18.329l4.405.448v-110.119h12.053z"/><path d="m207.171 68.829c.782.78 1.805 1.171 2.829 1.171s2.047-.391 2.829-1.171c1.562-1.562 1.562-4.095 0-5.657l-12-12c-1.562-1.562-4.095-1.562-5.657 0s-1.562 4.095 0 5.657z"/><path d="m242 70c1.024 0 2.047-.391 2.829-1.171l12-12c1.562-1.562 1.562-4.095 0-5.657s-4.095-1.562-5.657 0l-12 12c-1.562 1.562-1.562 4.095 0 5.657.781.78 1.804 1.171 2.828 1.171z"/><path d="m226 70c2.209 0 4-1.791 4-4v-16c0-2.209-1.791-4-4-4s-4 1.791-4 4v16c0 2.209 1.791 4 4 4z"/><path d="m89.504 149.989 12.496 1.562v38.449c0 2.209 1.791 4 4 4s4-1.791 4-4v-37.449l11.504 1.438c.168.021.335.031.501.031 1.988 0 3.711-1.481 3.964-3.504.274-2.192-1.281-4.191-3.473-4.465l-12.496-1.563v-10.488c0-2.209-1.791-4-4-4s-4 1.791-4 4v9.488l-11.504-1.438c-2.196-.274-4.191 1.281-4.465 3.473s1.281 4.192 3.473 4.466z"/></svg>