<svg id="Icons" height="512" viewBox="0 0 74 74" width="512" xmlns="http://www.w3.org/2000/svg"><path d="m11.5 64.84a1 1 0 0 1 -1-1v-54.84a7.008 7.008 0 0 1 7-7h3.62a1 1 0 0 1 0 2h-3.62a5.006 5.006 0 0 0 -5 5v54.84a1 1 0 0 1 -1 1z"/><path d="m62.5 72h-43.84a8.155 8.155 0 1 1 0-16.311h43.84a1 1 0 0 1 .82 1.573c-3.1 4.43-3.1 8.735 0 13.164a1 1 0 0 1 -.82 1.574zm-43.84-14.311a6.155 6.155 0 1 0 0 12.311h42.035a11.98 11.98 0 0 1 0-12.311z"/><path d="m62.5 57.689h-41.38a1 1 0 0 1 -1-1v-53.689a1 1 0 0 1 1-1h41.38a1 1 0 0 1 1 1v53.689a1 1 0 0 1 -1 1zm-40.38-2h39.38v-51.689h-39.38z"/><path d="m41.81 32a1 1 0 0 1 -1-1v-16.5a1 1 0 0 1 2 0v16.5a1 1 0 0 1 -1 1z"/><path d="m47.86 20.45h-12.1a1 1 0 0 1 0-2h12.1a1 1 0 0 1 0 2z"/></svg>