<?xml version="1.0" encoding="iso-8859-1"?>
<!-- Generator: Adobe Illustrator 18.1.1, SVG Export Plug-In . SVG Version: 6.00 Build 0)  -->
<svg version="1.1" id="Capa_1" xmlns="http://www.w3.org/2000/svg" xmlns:xlink="http://www.w3.org/1999/xlink" x="0px" y="0px"
	 viewBox="0 0 49.628 49.628" style="enable-background:new 0 0 49.628 49.628;" xml:space="preserve">
<g>
	<path style="fill:#030104;" d="M46.822,0.7c-0.279,0-0.569,0.037-0.863,0.109C42.01,1.787,34.011,3.429,24.815,3.429
		S7.62,1.787,3.67,0.809C3.376,0.737,3.086,0.7,2.807,0.7C1.155,0.7,0,1.903,0,3.626v27.236c0,1.869,1.218,4.146,2.773,5.185
		L20.79,48.085c0.812,0.543,1.891,0.842,3.038,0.842h1.971c1.147,0,2.227-0.299,3.038-0.842l18.018-12.037
		c1.555-1.039,2.773-3.316,2.773-5.185V3.626C49.628,1.903,48.474,0.7,46.822,0.7z M48.378,30.863c0,1.445-1.015,3.344-2.216,4.146
		L28.144,47.045c-0.579,0.387-1.438,0.607-2.356,0.607h-1.947c-0.918,0-1.777-0.221-2.356-0.607L3.465,35.008
		c-1.201-0.803-2.216-2.701-2.216-4.146V3.626c0-1.018,0.611-1.676,1.557-1.676c0.177,0,0.366,0.023,0.562,0.072
		c4.006,0.992,12.118,2.656,21.445,2.656s17.439-1.664,21.445-2.656c0.198-0.049,0.387-0.072,0.564-0.072
		c0.945,0,1.557,0.658,1.557,1.676L48.378,30.863L48.378,30.863z M4.624,8.071c0.276,0,0.5-0.225,0.5-0.5v-1.5
		c0-0.277-0.224-0.5-0.5-0.5s-0.5,0.223-0.5,0.5v1.5C4.124,7.846,4.348,8.071,4.624,8.071z M4.624,14.249c0.276,0,0.5-0.225,0.5-0.5
		v-3.09c0-0.275-0.224-0.5-0.5-0.5s-0.5,0.225-0.5,0.5v3.09C4.124,14.024,4.348,14.249,4.624,14.249z M4.624,26.607
		c0.276,0,0.5-0.225,0.5-0.5v-3.09c0-0.275-0.224-0.5-0.5-0.5s-0.5,0.225-0.5,0.5v3.09C4.124,26.382,4.348,26.607,4.624,26.607z
		 M4.624,20.427c0.276,0,0.5-0.223,0.5-0.5v-3.088c0-0.277-0.224-0.5-0.5-0.5s-0.5,0.223-0.5,0.5v3.088
		C4.124,20.205,4.348,20.427,4.624,20.427z M5.124,30.431v-1.234c0-0.277-0.224-0.5-0.5-0.5s-0.5,0.223-0.5,0.5v1.764l1.459,0.992
		c0.086,0.059,0.184,0.088,0.281,0.088c0.159,0,0.316-0.076,0.413-0.219c0.155-0.229,0.097-0.539-0.132-0.695L5.124,30.431z
		 M18.64,39.62c-0.225-0.154-0.538-0.098-0.694,0.131c-0.155,0.229-0.097,0.541,0.132,0.695l2.499,1.697
		c0.086,0.059,0.184,0.088,0.281,0.088c0.159,0,0.316-0.076,0.413-0.219c0.155-0.229,0.097-0.541-0.132-0.695L18.64,39.62z
		 M13.642,36.221c-0.225-0.152-0.538-0.098-0.694,0.133c-0.155,0.229-0.097,0.539,0.132,0.693l2.499,1.699
		c0.086,0.059,0.184,0.086,0.281,0.086c0.159,0,0.316-0.076,0.413-0.219c0.155-0.229,0.097-0.539-0.132-0.693
		C16.141,37.92,13.642,36.221,13.642,36.221z M8.645,32.825c-0.226-0.154-0.538-0.098-0.694,0.131
		c-0.155,0.229-0.097,0.541,0.132,0.695l2.499,1.697c0.086,0.059,0.184,0.088,0.281,0.088c0.159,0,0.316-0.076,0.413-0.219
		c0.155-0.229,0.097-0.541-0.132-0.695L8.645,32.825z M25.643,43.086l-1.025,0.596l-0.98-0.666
		c-0.225-0.154-0.538-0.098-0.694,0.131c-0.155,0.229-0.097,0.539,0.132,0.695l1.501,1.021l1.568-0.912
		c0.239-0.139,0.32-0.445,0.182-0.684C26.187,43.026,25.879,42.948,25.643,43.086z M30.671,40.161l-2.515,1.463
		c-0.239,0.139-0.32,0.445-0.182,0.684c0.093,0.16,0.261,0.248,0.433,0.248c0.086,0,0.172-0.021,0.251-0.066l2.515-1.463
		c0.239-0.139,0.32-0.445,0.182-0.684C31.215,40.102,30.909,40.022,30.671,40.161z M35.7,37.237l-2.515,1.461
		c-0.239,0.139-0.32,0.445-0.182,0.684c0.093,0.16,0.261,0.25,0.433,0.25c0.086,0,0.172-0.021,0.251-0.068l2.515-1.461
		c0.239-0.139,0.32-0.445,0.182-0.684C36.244,37.178,35.936,37.098,35.7,37.237z M40.729,34.313l-2.515,1.461
		c-0.239,0.139-0.32,0.445-0.182,0.684c0.093,0.16,0.261,0.25,0.433,0.25c0.086,0,0.172-0.021,0.251-0.068l2.515-1.461
		c0.239-0.139,0.32-0.445,0.182-0.684C41.273,34.254,40.966,34.174,40.729,34.313z M44.79,30.529c-0.276,0-0.5,0.225-0.5,0.5v1.213
		l-1.048,0.609c-0.239,0.139-0.32,0.445-0.182,0.684c0.093,0.16,0.261,0.248,0.433,0.248c0.086,0,0.172-0.021,0.251-0.066
		l1.546-0.898V31.03C45.29,30.753,45.067,30.529,44.79,30.529z M44.79,23.826c-0.276,0-0.5,0.225-0.5,0.5v3.352
		c0,0.277,0.224,0.5,0.5,0.5s0.5-0.223,0.5-0.5v-3.352C45.29,24.049,45.067,23.826,44.79,23.826z M44.79,10.42
		c-0.276,0-0.5,0.225-0.5,0.5v3.352c0,0.277,0.224,0.5,0.5,0.5s0.5-0.223,0.5-0.5V10.92C45.29,10.645,45.067,10.42,44.79,10.42z
		 M44.79,17.125c-0.276,0-0.5,0.223-0.5,0.5v3.352c0,0.275,0.224,0.5,0.5,0.5s0.5-0.225,0.5-0.5v-3.352
		C45.29,17.347,45.067,17.125,44.79,17.125z M44.79,5.571c-0.276,0-0.5,0.223-0.5,0.5v1.5c0,0.275,0.224,0.5,0.5,0.5
		s0.5-0.225,0.5-0.5v-1.5C45.29,5.794,45.067,5.571,44.79,5.571z"/>
</g>
<g>
</g>
<g>
</g>
<g>
</g>
<g>
</g>
<g>
</g>
<g>
</g>
<g>
</g>
<g>
</g>
<g>
</g>
<g>
</g>
<g>
</g>
<g>
</g>
<g>
</g>
<g>
</g>
<g>
</g>
</svg>
