<svg id="_x31_px" enable-background="new 0 0 24 24" height="512" viewBox="0 0 24 24" width="512" xmlns="http://www.w3.org/2000/svg"><path d="m17.5 24h-9c-.276 0-.5-.224-.5-.5v-3.325l-2.414.734c-.163.058-.367.091-.586.091-1.103 0-2-.897-2-2v-3h-2c-.561 0-1-.439-1-1 0-.188.053-.368.155-.534l2.342-3.712c.329-.521.503-1.127.503-1.754 0-2.404.937-4.664 2.637-6.363 1.361-1.362 3.151-2.264 5.041-2.542.269-.043.526.148.567.422.04.273-.149.527-.423.567-1.677.247-3.268 1.049-4.478 2.26-1.512 1.511-2.344 3.519-2.344 5.656 0 .817-.228 1.608-.657 2.288l-2.34 3.709 2.497.003c.276 0 .5.224.5.5v3.5c0 .551.448 1 1 1 .104 0 .196-.014.273-.041l3.081-.938c.152-.044.317-.018.443.077.128.094.203.244.203.402v3.5h8v-4.53c0-1.744.532-3.43 1.54-4.876.12-.16.219-.315.31-.469.142-.238.448-.316.686-.175s.316.447.176.685c-.11.186-.23.371-.361.546-.88 1.262-1.351 2.751-1.351 4.289v5.03c0 .276-.224.5-.5.5z"/><path d="m18.5 10.5c-.276 0-.5-.224-.5-.5v-8.25c0-.276.224-.5.5-.5s.5.224.5.5v8.25c0 .276-.224.5-.5.5z"/><path d="m18.5 11c-.11 0-.221-.037-.313-.109-1.254-1.003-2.463-1.155-3.698-.461-.315.177-.688.175-1-.007-.306-.18-.489-.5-.489-.856v-7.56c0-.501.235-.958.63-1.223 1.598-1.069 3.274-1.035 4.87.09 1.595-1.125 3.271-1.159 4.87-.09.395.264.63.721.63 1.223v7.56c0 .356-.183.676-.489.855-.312.183-.685.184-1 .007-1.232-.694-2.444-.542-3.698.461-.092.073-.203.11-.313.11zm-2.489-2.002c.834 0 1.665.292 2.489.876 1.486-1.053 2.998-1.161 4.501-.317l-.001-7.55c0-.165-.071-.314-.187-.392-1.341-.896-2.649-.807-4.001.275-.184.146-.441.146-.625 0-1.352-1.082-2.66-1.17-4.001-.275-.115.077-.186.227-.186.392v7.56c.669-.38 1.341-.569 2.011-.569z"/></svg>